<?xml version="1.0" encoding="UTF-8" standalone="no"?>
<!DOCTYPE svg PUBLIC "-//W3C//DTD SVG 1.1//EN"
 "http://www.w3.org/Graphics/SVG/1.1/DTD/svg11.dtd">
<!-- Generated by graphviz version 2.49.0 (20210828.1703)
 -->
<!-- Title: G Pages: 1 -->
<svg width="62pt" height="332pt"
 viewBox="0.00 0.00 62.00 332.00" xmlns="http://www.w3.org/2000/svg" xmlns:xlink="http://www.w3.org/1999/xlink">
<g id="graph0" class="graph" transform="scale(1 1) rotate(0) translate(4 328)">
<title>G</title>
<polygon fill="white" stroke="transparent" points="-4,4 -4,-328 58,-328 58,4 -4,4"/>
<!-- 10 -->
<g id="node1" class="node">
<title>10</title>
<ellipse fill="none" stroke="black" cx="27" cy="-306" rx="27" ry="18"/>
<text text-anchor="middle" x="27" y="-302.3" font-family="Times New Roman,serif" font-size="14.00">10</text>
</g>
<!-- 20 -->
<g id="node2" class="node">
<title>20</title>
<ellipse fill="none" stroke="black" cx="27" cy="-234" rx="27" ry="18"/>
<text text-anchor="middle" x="27" y="-230.3" font-family="Times New Roman,serif" font-size="14.00">20</text>
</g>
<!-- 10&#45;&gt;20 -->
<g id="edge1" class="edge">
<title>10&#45;&gt;20</title>
<path fill="none" stroke="black" d="M27,-287.7C27,-279.98 27,-270.71 27,-262.11"/>
<polygon fill="black" stroke="black" points="30.5,-262.1 27,-252.1 23.5,-262.1 30.5,-262.1"/>
</g>
<!-- 19 -->
<g id="node3" class="node">
<title>19</title>
<ellipse fill="none" stroke="black" cx="27" cy="-162" rx="27" ry="18"/>
<text text-anchor="middle" x="27" y="-158.3" font-family="Times New Roman,serif" font-size="14.00">19</text>
</g>
<!-- 20&#45;&gt;19 -->
<g id="edge2" class="edge">
<title>20&#45;&gt;19</title>
<path fill="none" stroke="black" d="M27,-215.7C27,-207.98 27,-198.71 27,-190.11"/>
<polygon fill="black" stroke="black" points="30.5,-190.1 27,-180.1 23.5,-190.1 30.5,-190.1"/>
</g>
<!-- 11 -->
<g id="node4" class="node">
<title>11</title>
<ellipse fill="none" stroke="black" cx="27" cy="-90" rx="27" ry="18"/>
<text text-anchor="middle" x="27" y="-86.3" font-family="Times New Roman,serif" font-size="14.00">11</text>
</g>
<!-- 19&#45;&gt;11 -->
<g id="edge3" class="edge">
<title>19&#45;&gt;11</title>
<path fill="none" stroke="black" d="M27,-143.7C27,-135.98 27,-126.71 27,-118.11"/>
<polygon fill="black" stroke="black" points="30.5,-118.1 27,-108.1 23.5,-118.1 30.5,-118.1"/>
</g>
<!-- 13 -->
<g id="node5" class="node">
<title>13</title>
<ellipse fill="none" stroke="black" cx="27" cy="-18" rx="27" ry="18"/>
<text text-anchor="middle" x="27" y="-14.3" font-family="Times New Roman,serif" font-size="14.00">13</text>
</g>
<!-- 11&#45;&gt;13 -->
<g id="edge4" class="edge">
<title>11&#45;&gt;13</title>
<path fill="none" stroke="black" d="M27,-71.7C27,-63.98 27,-54.71 27,-46.11"/>
<polygon fill="black" stroke="black" points="30.5,-46.1 27,-36.1 23.5,-46.1 30.5,-46.1"/>
</g>
</g>
</svg>
